<svg width="69" height="96" xmlns="http://www.w3.org/2000/svg" xmlns:xlink="http://www.w3.org/1999/xlink" xml:space="preserve" overflow="hidden"><g transform="translate(-1361 -275)"><g><path d="M1366.5 292.5C1366.5 286.977 1370.98 282.5 1376.5 282.5L1416.5 282.5C1422.02 282.5 1426.5 286.977 1426.5 292.5L1426.5 356.5C1426.5 362.023 1422.02 366.5 1416.5 366.5L1376.5 366.5C1370.98 366.5 1366.5 362.023 1366.5 356.5Z" stroke="#042433" stroke-width="6.875" stroke-linecap="butt" stroke-linejoin="miter" stroke-miterlimit="8" stroke-opacity="1" fill="none" fill-rule="evenodd"/><path d="M1382 318.016 1391.02 318.016 1391.02 309 1399.98 309 1399.98 318.016 1409 318.016 1409 329.983 1399.98 329.983 1399.98 339 1391.02 339 1391.02 329.983 1382 329.983Z" fill="#000000" fill-rule="evenodd" fill-opacity="1"/></g></g></svg>