<svg width="68" height="106" xmlns="http://www.w3.org/2000/svg" xmlns:xlink="http://www.w3.org/1999/xlink" xml:space="preserve" overflow="hidden"><g transform="translate(-1540 -265)"><g><path d="M1543.5 292.5C1543.5 286.977 1547.98 282.5 1553.5 282.5L1593.5 282.5C1599.02 282.5 1603.5 286.977 1603.5 292.5L1603.5 356.5C1603.5 362.023 1599.02 366.5 1593.5 366.5L1553.5 366.5C1547.98 366.5 1543.5 362.023 1543.5 356.5Z" stroke="#042433" stroke-width="6.875" stroke-linecap="butt" stroke-linejoin="miter" stroke-miterlimit="8" stroke-opacity="1" fill="none" fill-rule="evenodd"/><path d="M1559 318.35 1568.35 318.35 1568.35 309 1577.65 309 1577.65 318.35 1587 318.35 1587 330.65 1577.65 330.65 1577.65 340 1568.35 340 1568.35 330.65 1559 330.65Z" fill="#000000" fill-rule="evenodd" fill-opacity="1"/><text fill="#000000" fill-opacity="1" font-family="Aptos,Aptos_MSFontService,sans-serif" font-style="normal" font-variant="normal" font-weight="700" font-stretch="normal" font-size="18" text-anchor="start" direction="ltr" writing-mode="lr-tb" unicode-bidi="normal" text-decoration="none" transform="matrix(1 0 0 1 1571.85 304)">+2</text></g></g></svg>