<svg width="21" height="21" xmlns="http://www.w3.org/2000/svg" xmlns:xlink="http://www.w3.org/1999/xlink" xml:space="preserve" overflow="hidden"><g transform="translate(-240 -228)"><g><path d="M256.042 234.478C255.684 231.418 252.913 229.228 249.853 229.586 247.05 229.914 244.933 232.284 244.924 235.107L247.549 235.107C247.549 233.477 248.87 232.155 250.501 232.155 252.131 232.155 253.453 233.476 253.453 235.107 253.453 236.123 252.93 237.068 252.068 237.608 250.291 238.696 249.201 240.624 249.188 242.708L251.812 242.708C251.829 241.528 252.454 240.439 253.466 239.83 255.287 238.694 256.29 236.61 256.042 234.478Z" fill="#000000" fill-rule="nonzero" fill-opacity="1"/><path d="M251.677 244.729 251.677 244.729C251.051 244.102 250.036 244.101 249.409 244.726 249.408 244.727 249.407 244.728 249.407 244.729 249.26 244.876 249.143 245.05 249.063 245.242 248.979 245.44 248.936 245.653 248.937 245.868 248.936 246.082 248.979 246.294 249.063 246.491 249.227 246.876 249.534 247.181 249.92 247.343 250.118 247.426 250.331 247.469 250.546 247.469 250.76 247.47 250.972 247.427 251.169 247.343 251.551 247.179 251.856 246.874 252.02 246.491 252.104 246.294 252.147 246.082 252.146 245.868 252.147 245.653 252.104 245.441 252.02 245.243 251.94 245.051 251.823 244.876 251.677 244.729Z" fill="#000000" fill-rule="nonzero" fill-opacity="1"/></g></g></svg>