<svg width="119" height="129" xmlns="http://www.w3.org/2000/svg" xmlns:xlink="http://www.w3.org/1999/xlink" xml:space="preserve" overflow="hidden"><g transform="translate(-825 -728)"><g><g><g><g><path d="M881.001 805.209C879.773 794.718 870.274 787.209 859.783 788.437 850.171 789.562 842.914 797.689 842.881 807.367L851.881 807.367C851.881 801.777 856.412 797.245 862.002 797.245 867.592 797.245 872.123 801.776 872.123 807.366 872.124 810.851 870.331 814.091 867.377 815.942 861.283 819.671 857.548 826.284 857.5 833.428L866.5 833.428C866.557 829.381 868.701 825.649 872.168 823.561 878.411 819.664 881.85 812.519 881.001 805.209Z" fill="#000000" fill-rule="nonzero" fill-opacity="1"/><path d="M866.034 840.355 866.034 840.355C863.89 838.206 860.409 838.203 858.26 840.347 858.257 840.35 858.254 840.353 858.251 840.355 857.749 840.86 857.348 841.458 857.073 842.115 856.786 842.794 856.639 843.524 856.643 844.261 856.639 844.995 856.785 845.722 857.074 846.397 857.635 847.716 858.689 848.764 860.011 849.318 860.69 849.605 861.419 849.752 862.156 849.75 862.89 849.753 863.617 849.607 864.292 849.319 865.605 848.758 866.651 847.712 867.211 846.399 867.499 845.724 867.646 844.997 867.643 844.263 867.646 843.526 867.499 842.796 867.212 842.117 866.937 841.459 866.537 840.861 866.034 840.355Z" fill="#000000" fill-rule="nonzero" fill-opacity="1"/></g></g></g><text fill="#000000" fill-opacity="1" font-family="Aptos,Aptos_MSFontService,sans-serif" font-style="normal" font-variant="normal" font-weight="400" font-stretch="normal" font-size="50" text-anchor="start" direction="ltr" writing-mode="lr-tb" unicode-bidi="normal" text-decoration="none" transform="matrix(1 0 0 1 881.021 796)">&gt;</text></g></g></svg>