<svg width="74" height="96" xmlns="http://www.w3.org/2000/svg" xmlns:xlink="http://www.w3.org/1999/xlink" xml:space="preserve" overflow="hidden"><g transform="translate(-1411 -852)"><g><path d="M1417.5 869.5C1417.5 863.977 1421.98 859.5 1427.5 859.5L1467.5 859.5C1473.02 859.5 1477.5 863.977 1477.5 869.5L1477.5 933.5C1477.5 939.023 1473.02 943.5 1467.5 943.5L1427.5 943.5C1421.98 943.5 1417.5 939.023 1417.5 933.5Z" stroke="#042433" stroke-width="6.875" stroke-linecap="butt" stroke-linejoin="miter" stroke-miterlimit="8" stroke-opacity="1" fill="none" fill-rule="evenodd"/><path d="M1447.5 923C1447.5 917.201 1452.2 912.5 1458 912.5 1463.8 912.5 1468.5 917.201 1468.5 923 1468.5 928.799 1463.8 933.5 1458 933.5 1452.2 933.5 1447.5 928.799 1447.5 923Z" stroke="#042433" stroke-width="3.4375" stroke-linecap="butt" stroke-linejoin="miter" stroke-miterlimit="8" stroke-opacity="1" fill="#F2CFEE" fill-rule="evenodd" fill-opacity="1"/></g></g></svg>