<svg width="64" height="83" xmlns="http://www.w3.org/2000/svg" xmlns:xlink="http://www.w3.org/1999/xlink" xml:space="preserve" overflow="hidden"><g transform="translate(-825 -751)"><g><path d="M832.5 767.833C832.5 763.231 836.231 759.5 840.834 759.5L874.167 759.5C878.769 759.5 882.5 763.231 882.5 767.833L882.5 820.166C882.5 824.769 878.769 828.5 874.167 828.5L840.834 828.5C836.231 828.5 832.5 824.769 832.5 820.166Z" stroke="#042433" stroke-width="6.875" stroke-linecap="butt" stroke-linejoin="miter" stroke-miterlimit="8" stroke-opacity="1" fill="none" fill-rule="evenodd"/><path d="M842 813 842 788.438C842 780.464 848.464 774 856.437 774 864.411 774 870.875 780.464 870.875 788.438L870.875 804.305 875 804.305 866.75 812.555 858.5 804.305 862.625 804.305 862.625 788.438C862.625 785.02 859.855 782.25 856.437 782.25L856.437 782.25C853.02 782.25 850.25 785.02 850.25 788.438L850.25 813Z" fill="#000000" fill-rule="evenodd" fill-opacity="1"/></g></g></svg>