<svg width="60" height="78" xmlns="http://www.w3.org/2000/svg" xmlns:xlink="http://www.w3.org/1999/xlink" xml:space="preserve" overflow="hidden"><g transform="translate(-838 -618)"><g><path d="M844.5 630.667C844.5 626.156 848.156 622.5 852.667 622.5L885.333 622.5C889.844 622.5 893.5 626.156 893.5 630.667L893.5 684.333C893.5 688.844 889.844 692.5 885.333 692.5L852.667 692.5C848.156 692.5 844.5 688.844 844.5 684.333Z" stroke="#042433" stroke-width="6.875" stroke-linecap="butt" stroke-linejoin="miter" stroke-miterlimit="8" stroke-opacity="1" fill="none" fill-rule="evenodd"/><path d="M855.656 649.762 862.117 643.932 868.5 651.005 874.883 643.932 881.344 649.762 874.361 657.5 881.344 665.238 874.883 671.068 868.5 663.995 862.117 671.068 855.656 665.238 862.639 657.5Z" fill="#000000" fill-rule="evenodd" fill-opacity="1"/></g></g></svg>